<mxfile host="app.diagrams.net" modified="2022-04-08T23:29:51.146Z" agent="5.0 (Windows)" etag="CFZ06VHYkYsZ37fTBR9X" version="17.4.0" type="github">
  <diagram id="H88vbu2F5iCE0-_oEWzY" name="Page-1">
    <mxGraphModel dx="2424" dy="2037" grid="1" gridSize="10" guides="1" tooltips="1" connect="1" arrows="1" fold="1" page="1" pageScale="1" pageWidth="827" pageHeight="1169" math="0" shadow="0">
      <root>
        <mxCell id="0" />
        <mxCell id="1" parent="0" />
        <mxCell id="xVnecakKS6y9IhjQjkrB-11" value="&amp;lt;&amp;lt;import&amp;gt;&amp;gt;" style="edgeStyle=none;html=1;endArrow=open;endSize=12;dashed=1;verticalAlign=bottom;rounded=0;entryX=0;entryY=0;entryDx=0;entryDy=45;entryPerimeter=0;exitX=0.5;exitY=1;exitDx=0;exitDy=0;exitPerimeter=0;" parent="1" source="xVnecakKS6y9IhjQjkrB-2" target="xVnecakKS6y9IhjQjkrB-8" edge="1">
          <mxGeometry width="160" relative="1" as="geometry">
            <mxPoint x="170" y="484" as="sourcePoint" />
            <mxPoint x="220" y="580" as="targetPoint" />
            <Array as="points">
              <mxPoint x="-425" y="625" />
            </Array>
          </mxGeometry>
        </mxCell>
        <mxCell id="xVnecakKS6y9IhjQjkrB-13" value="&amp;lt;&amp;lt;import&amp;gt;&amp;gt;" style="edgeStyle=none;html=1;endArrow=open;endSize=12;dashed=1;verticalAlign=bottom;rounded=0;entryX=0;entryY=0;entryDx=0;entryDy=45;entryPerimeter=0;exitX=0;exitY=0;exitDx=150;exitDy=45;exitPerimeter=0;" parent="1" source="xVnecakKS6y9IhjQjkrB-6" target="xVnecakKS6y9IhjQjkrB-12" edge="1">
          <mxGeometry width="160" relative="1" as="geometry">
            <mxPoint x="270" y="410" as="sourcePoint" />
            <mxPoint x="430" y="410" as="targetPoint" />
            <Array as="points">
              <mxPoint x="180" y="445" />
              <mxPoint x="180" y="485" />
            </Array>
          </mxGeometry>
        </mxCell>
        <mxCell id="xVnecakKS6y9IhjQjkrB-20" value="&amp;lt;&amp;lt;access&amp;gt;&amp;gt;" style="edgeStyle=none;html=1;endArrow=open;endSize=12;dashed=1;verticalAlign=bottom;rounded=0;entryX=0.84;entryY=0.047;entryDx=0;entryDy=0;entryPerimeter=0;" parent="1" target="xVnecakKS6y9IhjQjkrB-14" edge="1">
          <mxGeometry width="160" relative="1" as="geometry">
            <mxPoint x="460" y="60" as="sourcePoint" />
            <mxPoint x="30" y="220" as="targetPoint" />
            <Array as="points">
              <mxPoint x="180" y="60" />
              <mxPoint x="180" y="150" />
              <mxPoint x="-4" y="150" />
            </Array>
          </mxGeometry>
        </mxCell>
        <mxCell id="xVnecakKS6y9IhjQjkrB-22" value="&amp;lt;&amp;lt;merge&amp;gt;&amp;gt;" style="edgeStyle=none;html=1;endArrow=open;endSize=12;dashed=1;verticalAlign=bottom;rounded=0;entryX=0;entryY=0;entryDx=150;entryDy=62.5;entryPerimeter=0;exitX=0;exitY=0;exitDx=0;exitDy=45;exitPerimeter=0;" parent="1" source="xVnecakKS6y9IhjQjkrB-4" target="xVnecakKS6y9IhjQjkrB-14" edge="1">
          <mxGeometry x="0.3485" y="1" width="160" relative="1" as="geometry">
            <mxPoint x="434" y="130" as="sourcePoint" />
            <mxPoint x="433.3000000000002" y="226" as="targetPoint" />
            <Array as="points">
              <mxPoint x="180" y="365" />
              <mxPoint x="180" y="253" />
            </Array>
            <mxPoint as="offset" />
          </mxGeometry>
        </mxCell>
        <mxCell id="OjAhgf_gLrIJjrnwMmez-1" value="SITEWEB" style="swimlane;" parent="1" vertex="1">
          <mxGeometry x="-580" y="-40" width="810" height="760" as="geometry" />
        </mxCell>
        <mxCell id="xVnecakKS6y9IhjQjkrB-2" value="Payment System" style="shape=folder;fontStyle=1;tabWidth=70;tabHeight=10;tabPosition=left;html=1;boundedLbl=1;" parent="OjAhgf_gLrIJjrnwMmez-1" vertex="1">
          <mxGeometry x="80" y="520" width="150" height="80" as="geometry" />
        </mxCell>
        <mxCell id="xVnecakKS6y9IhjQjkrB-7" value="Orders" style="shape=folder;fontStyle=1;tabWidth=70;tabHeight=10;tabPosition=left;html=1;boundedLbl=1;" parent="OjAhgf_gLrIJjrnwMmez-1" vertex="1">
          <mxGeometry x="80" y="280" width="150" height="80" as="geometry" />
        </mxCell>
        <mxCell id="xVnecakKS6y9IhjQjkrB-9" value="&amp;lt;&amp;lt;access&amp;gt;&amp;gt;" style="edgeStyle=none;html=1;endArrow=open;endSize=12;dashed=1;verticalAlign=bottom;rounded=0;entryX=0.537;entryY=0.134;entryDx=0;entryDy=0;entryPerimeter=0;" parent="OjAhgf_gLrIJjrnwMmez-1" edge="1" target="xVnecakKS6y9IhjQjkrB-2">
          <mxGeometry width="160" relative="1" as="geometry">
            <mxPoint x="161" y="360" as="sourcePoint" />
            <mxPoint x="155" y="520" as="targetPoint" />
            <Array as="points" />
          </mxGeometry>
        </mxCell>
        <mxCell id="xVnecakKS6y9IhjQjkrB-1" value="Products search" style="shape=folder;fontStyle=1;tabWidth=70;tabHeight=10;tabPosition=left;html=1;boundedLbl=1;" parent="OjAhgf_gLrIJjrnwMmez-1" vertex="1">
          <mxGeometry x="80" y="60" width="150" height="80" as="geometry" />
        </mxCell>
        <mxCell id="xVnecakKS6y9IhjQjkrB-5" value="Product pages" style="shape=folder;fontStyle=1;tabWidth=70;tabHeight=10;tabPosition=left;html=1;boundedLbl=1;" parent="OjAhgf_gLrIJjrnwMmez-1" vertex="1">
          <mxGeometry x="450" y="50" width="150" height="80" as="geometry" />
        </mxCell>
        <mxCell id="xVnecakKS6y9IhjQjkrB-6" value="Shopping Cart" style="shape=folder;fontStyle=1;tabWidth=70;tabHeight=10;tabPosition=left;html=1;boundedLbl=1;" parent="OjAhgf_gLrIJjrnwMmez-1" vertex="1">
          <mxGeometry x="450" y="440" width="150" height="80" as="geometry" />
        </mxCell>
        <mxCell id="xVnecakKS6y9IhjQjkrB-14" value="Store UI" style="shape=folder;fontStyle=1;tabWidth=70;tabHeight=10;tabPosition=left;html=1;boundedLbl=1;" parent="OjAhgf_gLrIJjrnwMmez-1" vertex="1">
          <mxGeometry x="450" y="230" width="150" height="80" as="geometry" />
        </mxCell>
        <mxCell id="xVnecakKS6y9IhjQjkrB-15" value="&lt;span style=&quot;background-color: transparent&quot;&gt;&amp;lt;&amp;lt;merge&amp;gt;&lt;/span&gt;" style="endArrow=open;startArrow=none;endFill=0;startFill=0;endSize=8;html=1;verticalAlign=bottom;dashed=1;labelBackgroundColor=none;rounded=0;exitX=0;exitY=0;exitDx=150;exitDy=45;exitPerimeter=0;entryX=0;entryY=0;entryDx=0;entryDy=45;entryPerimeter=0;" parent="OjAhgf_gLrIJjrnwMmez-1" source="xVnecakKS6y9IhjQjkrB-1" target="xVnecakKS6y9IhjQjkrB-14" edge="1">
          <mxGeometry x="0.52" y="5" width="160" relative="1" as="geometry">
            <mxPoint x="460" y="260" as="sourcePoint" />
            <mxPoint x="620" y="260" as="targetPoint" />
            <Array as="points">
              <mxPoint x="275" y="105" />
              <mxPoint x="275" y="275" />
            </Array>
            <mxPoint as="offset" />
          </mxGeometry>
        </mxCell>
        <mxCell id="xVnecakKS6y9IhjQjkrB-16" value="&amp;lt;&amp;lt;merge&amp;gt;&amp;gt;" style="edgeStyle=none;html=1;endArrow=open;endSize=12;dashed=1;verticalAlign=bottom;rounded=0;entryX=0.5;entryY=0.125;entryDx=0;entryDy=0;entryPerimeter=0;exitX=0.5;exitY=1;exitDx=0;exitDy=0;exitPerimeter=0;" parent="OjAhgf_gLrIJjrnwMmez-1" source="xVnecakKS6y9IhjQjkrB-5" target="xVnecakKS6y9IhjQjkrB-14" edge="1">
          <mxGeometry width="160" relative="1" as="geometry">
            <mxPoint x="479" y="120" as="sourcePoint" />
            <mxPoint x="610" y="150" as="targetPoint" />
          </mxGeometry>
        </mxCell>
        <mxCell id="xVnecakKS6y9IhjQjkrB-19" value="&amp;lt;&amp;lt;merge&amp;gt;&amp;gt;" style="edgeStyle=none;html=1;endArrow=open;endSize=12;dashed=1;verticalAlign=bottom;rounded=0;exitX=0.543;exitY=0.086;exitDx=0;exitDy=0;exitPerimeter=0;" parent="OjAhgf_gLrIJjrnwMmez-1" source="xVnecakKS6y9IhjQjkrB-6" edge="1">
          <mxGeometry width="160" relative="1" as="geometry">
            <mxPoint x="465" y="390" as="sourcePoint" />
            <mxPoint x="531" y="310" as="targetPoint" />
          </mxGeometry>
        </mxCell>
        <mxCell id="xVnecakKS6y9IhjQjkrB-10" value="&amp;lt;&amp;lt;access&amp;gt;&amp;gt;" style="edgeStyle=none;html=1;endArrow=open;endSize=12;dashed=1;verticalAlign=bottom;rounded=0;exitX=0;exitY=0;exitDx=150;exitDy=45;exitPerimeter=0;entryX=0;entryY=0;entryDx=0;entryDy=45;entryPerimeter=0;" parent="OjAhgf_gLrIJjrnwMmez-1" source="xVnecakKS6y9IhjQjkrB-2" target="xVnecakKS6y9IhjQjkrB-6" edge="1">
          <mxGeometry width="160" relative="1" as="geometry">
            <mxPoint x="870" y="360" as="sourcePoint" />
            <mxPoint x="1030" y="360" as="targetPoint" />
            <Array as="points">
              <mxPoint x="410" y="565" />
              <mxPoint x="410" y="485" />
            </Array>
          </mxGeometry>
        </mxCell>
        <mxCell id="OjAhgf_gLrIJjrnwMmez-15" value="ADMINISTRATION" style="swimlane;" parent="1" vertex="1">
          <mxGeometry x="270" y="-40" width="510" height="760" as="geometry" />
        </mxCell>
        <mxCell id="xVnecakKS6y9IhjQjkrB-8" value="User Account" style="shape=folder;fontStyle=1;tabWidth=70;tabHeight=10;tabPosition=left;html=1;boundedLbl=1;" parent="OjAhgf_gLrIJjrnwMmez-15" vertex="1">
          <mxGeometry x="70" y="620" width="150" height="80" as="geometry" />
        </mxCell>
        <mxCell id="xVnecakKS6y9IhjQjkrB-12" value="Product Inventory" style="shape=folder;fontStyle=1;tabWidth=70;tabHeight=10;tabPosition=left;html=1;boundedLbl=1;" parent="OjAhgf_gLrIJjrnwMmez-15" vertex="1">
          <mxGeometry x="70" y="480" width="150" height="80" as="geometry" />
        </mxCell>
        <mxCell id="xVnecakKS6y9IhjQjkrB-3" value="Administration" style="shape=folder;fontStyle=1;tabWidth=70;tabHeight=10;tabPosition=left;html=1;boundedLbl=1;" parent="OjAhgf_gLrIJjrnwMmez-15" vertex="1">
          <mxGeometry x="190" y="60" width="150" height="80" as="geometry" />
        </mxCell>
        <mxCell id="xVnecakKS6y9IhjQjkrB-17" value="&amp;lt;&amp;lt;access&amp;gt;&amp;gt;" style="edgeStyle=none;html=1;endArrow=open;endSize=12;dashed=1;verticalAlign=bottom;rounded=0;entryX=0;entryY=0;entryDx=150;entryDy=45;entryPerimeter=0;" parent="OjAhgf_gLrIJjrnwMmez-15" target="xVnecakKS6y9IhjQjkrB-12" edge="1">
          <mxGeometry x="0.1075" y="-4" width="160" relative="1" as="geometry">
            <mxPoint x="340" y="120" as="sourcePoint" />
            <mxPoint x="460" y="554" as="targetPoint" />
            <Array as="points">
              <mxPoint x="370" y="120" />
              <mxPoint x="370" y="485" />
              <mxPoint x="370" y="525" />
            </Array>
            <mxPoint as="offset" />
          </mxGeometry>
        </mxCell>
        <mxCell id="xVnecakKS6y9IhjQjkrB-18" value="" style="edgeStyle=none;html=1;endArrow=open;endSize=12;dashed=1;verticalAlign=bottom;rounded=0;exitX=0;exitY=0;exitDx=150;exitDy=45;exitPerimeter=0;entryX=0;entryY=0;entryDx=150;entryDy=45;entryPerimeter=0;" parent="OjAhgf_gLrIJjrnwMmez-15" source="xVnecakKS6y9IhjQjkrB-3" target="xVnecakKS6y9IhjQjkrB-8" edge="1">
          <mxGeometry x="0.059" y="80" width="160" relative="1" as="geometry">
            <mxPoint y="614" as="sourcePoint" />
            <mxPoint x="160" y="614" as="targetPoint" />
            <Array as="points">
              <mxPoint x="400" y="105" />
              <mxPoint x="400" y="665" />
              <mxPoint x="290" y="665" />
            </Array>
            <mxPoint as="offset" />
          </mxGeometry>
        </mxCell>
        <mxCell id="WyrviyDEyEpqWxOpPwF1-1" value="&amp;lt;&amp;lt;access&amp;gt;&amp;gt;" style="edgeLabel;html=1;align=center;verticalAlign=middle;resizable=0;points=[];" vertex="1" connectable="0" parent="xVnecakKS6y9IhjQjkrB-18">
          <mxGeometry x="0.2843" y="1" relative="1" as="geometry">
            <mxPoint as="offset" />
          </mxGeometry>
        </mxCell>
        <mxCell id="xVnecakKS6y9IhjQjkrB-4" value="Promotion&lt;br&gt;Managment" style="shape=folder;fontStyle=1;tabWidth=70;tabHeight=10;tabPosition=left;html=1;boundedLbl=1;" parent="OjAhgf_gLrIJjrnwMmez-15" vertex="1">
          <mxGeometry x="70" y="360" width="150" height="80" as="geometry" />
        </mxCell>
        <mxCell id="xVnecakKS6y9IhjQjkrB-21" value="&amp;lt;&amp;lt;access&amp;gt;&amp;gt;" style="edgeStyle=none;html=1;endArrow=open;endSize=12;dashed=1;verticalAlign=bottom;rounded=0;entryX=0;entryY=0;entryDx=150;entryDy=45;entryPerimeter=0;" parent="OjAhgf_gLrIJjrnwMmez-15" target="xVnecakKS6y9IhjQjkrB-4" edge="1">
          <mxGeometry width="160" relative="1" as="geometry">
            <mxPoint x="300" y="140" as="sourcePoint" />
            <mxPoint x="220" y="305" as="targetPoint" />
            <Array as="points">
              <mxPoint x="300" y="405" />
            </Array>
          </mxGeometry>
        </mxCell>
        <mxCell id="WyrviyDEyEpqWxOpPwF1-2" value="Product Category &lt;br&gt;Managment" style="shape=folder;fontStyle=1;tabWidth=70;tabHeight=10;tabPosition=left;html=1;boundedLbl=1;" vertex="1" parent="OjAhgf_gLrIJjrnwMmez-15">
          <mxGeometry x="70" y="190" width="150" height="80" as="geometry" />
        </mxCell>
        <mxCell id="WyrviyDEyEpqWxOpPwF1-3" value="&amp;lt;&amp;lt;access&amp;gt;&amp;gt;" style="edgeStyle=none;html=1;endArrow=open;endSize=12;dashed=1;verticalAlign=bottom;rounded=0;entryX=0;entryY=0;entryDx=150;entryDy=45;entryPerimeter=0;exitX=0.5;exitY=1;exitDx=0;exitDy=0;exitPerimeter=0;" edge="1" parent="OjAhgf_gLrIJjrnwMmez-15" source="xVnecakKS6y9IhjQjkrB-3" target="WyrviyDEyEpqWxOpPwF1-2">
          <mxGeometry width="160" relative="1" as="geometry">
            <mxPoint x="260" y="170" as="sourcePoint" />
            <mxPoint x="230" y="415" as="targetPoint" />
            <Array as="points">
              <mxPoint x="265" y="235" />
            </Array>
          </mxGeometry>
        </mxCell>
        <mxCell id="WyrviyDEyEpqWxOpPwF1-4" value="&amp;lt;&amp;lt;merge&amp;gt;&amp;gt;" style="edgeStyle=none;html=1;endArrow=open;endSize=12;dashed=1;verticalAlign=bottom;rounded=0;exitX=0;exitY=0;exitDx=0;exitDy=45;exitPerimeter=0;" edge="1" parent="1" source="WyrviyDEyEpqWxOpPwF1-2">
          <mxGeometry x="0.3485" y="1" width="160" relative="1" as="geometry">
            <mxPoint x="350" y="375" as="sourcePoint" />
            <mxPoint x="20" y="230" as="targetPoint" />
            <Array as="points">
              <mxPoint x="180" y="195" />
              <mxPoint x="180" y="230" />
            </Array>
            <mxPoint as="offset" />
          </mxGeometry>
        </mxCell>
      </root>
    </mxGraphModel>
  </diagram>
</mxfile>
